<svg width="58" height="58" viewBox="0 0 58 58" fill="none" xmlns="http://www.w3.org/2000/svg">
<path d="M51.25 0.5C52.9242 0.5 54.5298 1.16506 55.7136 2.34889C56.8974 3.53271 57.5625 5.13832 57.5625 6.8125V51C57.5625 52.6742 56.8974 54.2798 55.7136 55.4636C54.5298 56.6474 52.9242 57.3125 51.25 57.3125H7.0625C5.38832 57.3125 3.78271 56.6474 2.59889 55.4636C1.41506 54.2798 0.75 52.6742 0.75 51V6.8125C0.75 5.13832 1.41506 3.53271 2.59889 2.34889C3.78271 1.16506 5.38832 0.5 7.0625 0.5H51.25ZM49.6719 49.4219V32.6937C49.6719 29.9648 48.5878 27.3477 46.6582 25.4181C44.7286 23.4884 42.1114 22.4044 39.3825 22.4044C36.6997 22.4044 33.575 24.0456 32.06 26.5075V23.0041H23.2541V49.4219H32.06V33.8616C32.06 31.4312 34.0169 29.4428 36.4472 29.4428C37.6191 29.4428 38.743 29.9084 39.5717 30.737C40.4004 31.5657 40.8659 32.6896 40.8659 33.8616V49.4219H49.6719ZM12.9963 18.0488C14.4026 18.0488 15.7513 17.4901 16.7457 16.4957C17.7401 15.5013 18.2988 14.1526 18.2988 12.7463C18.2988 9.81094 15.9316 7.41219 12.9963 7.41219C11.5816 7.41219 10.2248 7.97417 9.2245 8.9745C8.22417 9.97483 7.66219 11.3316 7.66219 12.7463C7.66219 15.6816 10.0609 18.0488 12.9963 18.0488ZM17.3834 49.4219V23.0041H8.64063V49.4219H17.3834Z" fill="black"/>
</svg>
