<svg width="41" height="65" viewBox="0 0 41 65" fill="none" xmlns="http://www.w3.org/2000/svg">
<path d="M20.3125 0C9.09391 0 0 9.09391 0 20.3125C0 38.2924 15.9151 59.4553 19.5704 64.0787C19.9577 64.5686 20.6673 64.5686 21.0546 64.0787C24.7099 59.4553 40.625 38.2924 40.625 20.3125C40.625 9.09391 31.5311 0 20.3125 0ZM20.3125 32.5C13.5809 32.5 8.125 27.0441 8.125 20.3125C8.125 13.5809 13.5809 8.125 20.3125 8.125C27.0441 8.125 32.5 13.5809 32.5 20.3125C32.5 27.0441 27.0441 32.5 20.3125 32.5Z" fill="#796049"/>
<circle cx="20.5" cy="20.5" r="12.5" fill="#D4C157"/>
</svg>
